<svg xmlns="http://www.w3.org/2000/svg" viewBox="0 0 2000 2000">
    <g opacity=".35" fill="#000">
        <path d="M638.3 580c-5.9-5.9-15.4-5.9-21.2 0l-26 26-26-26c-5.9-5.9-15.4-5.9-21.2 0s-5.9 15.4 0 21.2l26 26-26 26c-5.9 5.9-5.9 15.4 0 21.2s15.4 5.9 21.2 0l26-26 26 26c5.9 5.9 15.4 5.9 21.2 0s5.9-15.4 0-21.2l-26-26 26-26c5.9-5.9 5.9-15.4 0-21.2zM1479.6 1437.2c-5.9-5.9-15.4-5.9-21.2 0l-26 26-26-26c-5.9-5.9-15.4-5.9-21.2 0-5.9 5.9-5.9 15.4 0 21.2l26 26-26 26c-5.9 5.9-5.9 15.4 0 21.2 5.9 5.9 15.4 5.9 21.2 0l26-26 26 26c5.9 5.9 15.4 5.9 21.2 0 5.9-5.9 5.9-15.4 0-21.2l-26-26 26-26c5.9-5.9 5.9-15.4 0-21.2zM601.7 1738.7c-5.9-5.9-15.4-5.9-21.2 0l-26 26-26-26c-5.9-5.9-15.4-5.9-21.2 0-5.9 5.9-5.9 15.4 0 21.2l26 26-26 26c-5.9 5.9-5.9 15.4 0 21.2 5.9 5.9 15.4 5.9 21.2 0l26-26 26 26c5.9 5.9 15.4 5.9 21.2 0 5.9-5.9 5.9-15.4 0-21.2l-26-26 26-26c5.9-5.8 5.9-15.3 0-21.2zM1736.2 305.8c5.9 5.9 15.4 5.9 21.2 0 5.9-5.9 5.9-15.4 0-21.2l-26-26 26-26c5.9-5.9 5.9-15.4 0-21.2-5.9-5.9-15.4-5.9-21.2 0l-26 26-26-26c-5.9-5.9-15.4-5.9-21.2 0-5.9 5.9-5.9 15.4 0 21.2l26 26-26 26c-5.9 5.9-5.9 15.4 0 21.2 5.9 5.9 15.4 5.9 21.2 0l26-26 26 26zM1174.9 539c-5-3.4-10.5-6-16.3-7.8-5.9-1.8-12.1-2.8-18.5-2.8-8.6 0-16.8 1.7-24.2 4.9-11.2 4.7-20.7 12.6-27.4 22.5-3.4 5-6 10.5-7.8 16.3-1.8 5.9-2.8 12.1-2.8 18.5 0 8.6 1.7 16.8 4.9 24.2 4.7 11.2 12.6 20.7 22.5 27.4 5 3.4 10.5 6 16.3 7.8 5.9 1.8 12.1 2.8 18.5 2.8 8.6 0 16.8-1.7 24.2-4.9 11.2-4.7 20.7-12.6 27.4-22.5 3.4-5 6-10.5 7.8-16.3 1.8-5.9 2.8-12.1 2.8-18.5 0-8.6-1.7-16.8-4.9-24.2-4.7-11.2-12.6-20.7-22.5-27.4zm-5.1 64.1c-2.4 5.8-6.5 10.7-11.7 14.2-2.6 1.7-5.4 3.1-8.4 4.1-3 .9-6.2 1.4-9.6 1.4-4.5 0-8.7-.9-12.6-2.5-5.8-2.4-10.7-6.5-14.2-11.7-1.7-2.6-3.1-5.4-4.1-8.4-.9-3-1.4-6.2-1.4-9.6 0-4.5.9-8.7 2.5-12.6 2.4-5.8 6.5-10.7 11.7-14.2 2.6-1.7 5.4-3.1 8.4-4.1 3-.9 6.2-1.4 9.6-1.4 4.5 0 8.7.9 12.6 2.5 5.8 2.4 10.7 6.5 14.2 11.7 1.7 2.6 3.1 5.4 4.1 8.4.9 3 1.4 6.2 1.4 9.6 0 4.6-.9 8.8-2.5 12.6zM1804.9 1802.5c-5-3.4-10.5-6-16.3-7.8-5.9-1.8-12.1-2.8-18.5-2.8-8.6 0-16.8 1.7-24.2 4.9-11.2 4.7-20.7 12.6-27.4 22.5-3.4 5-6 10.5-7.8 16.3-1.8 5.9-2.8 12.1-2.8 18.5 0 8.6 1.7 16.8 4.9 24.2 4.7 11.2 12.6 20.7 22.5 27.4 5 3.4 10.5 6 16.3 7.8 5.9 1.8 12.1 2.8 18.5 2.8 8.6 0 16.8-1.7 24.2-4.9 11.2-4.7 20.7-12.6 27.4-22.5 3.4-5 6-10.5 7.8-16.3 1.8-5.9 2.8-12.1 2.8-18.5 0-8.6-1.7-16.8-4.9-24.2-4.7-11.2-12.6-20.6-22.5-27.4zm-5.1 64.2c-2.4 5.8-6.5 10.7-11.7 14.2-2.6 1.7-5.4 3.1-8.4 4.1-3 .9-6.2 1.4-9.6 1.4-4.5 0-8.7-.9-12.6-2.5-5.8-2.4-10.7-6.5-14.2-11.7-1.7-2.6-3.1-5.4-4.1-8.4-.9-3-1.4-6.2-1.4-9.6 0-4.5.9-8.7 2.5-12.6 2.4-5.8 6.5-10.7 11.7-14.2 2.6-1.7 5.4-3.1 8.4-4.1 3-.9 6.2-1.4 9.6-1.4 4.5 0 8.7.9 12.6 2.5 5.8 2.4 10.7 6.5 14.2 11.7 1.7 2.6 3.1 5.4 4.1 8.4.9 3 1.4 6.2 1.4 9.6 0 4.6-.9 8.8-2.5 12.6zM914.7 1411.4c-5-3.4-10.5-6-16.3-7.8-5.9-1.8-12.1-2.8-18.5-2.8-8.6 0-16.8 1.7-24.2 4.9-11.2 4.7-20.7 12.6-27.4 22.5-3.4 5-6 10.5-7.8 16.3-1.8 5.9-2.8 12.1-2.8 18.5 0 8.6 1.7 16.8 4.9 24.2 4.7 11.2 12.6 20.7 22.5 27.4 5 3.4 10.5 6 16.3 7.8 5.9 1.8 12.1 2.8 18.5 2.8 8.6 0 16.8-1.7 24.2-4.9 11.2-4.7 20.7-12.6 27.4-22.5 3.4-5 6-10.5 7.8-16.3 1.8-5.9 2.8-12.1 2.8-18.5 0-8.6-1.7-16.8-4.9-24.2-4.7-11.2-12.6-20.7-22.5-27.4zm-5.1 64.2c-2.4 5.8-6.5 10.7-11.7 14.2-2.6 1.7-5.4 3.1-8.4 4.1-3 .9-6.2 1.4-9.6 1.4-4.5 0-8.7-.9-12.6-2.5-5.8-2.4-10.7-6.5-14.2-11.7-1.7-2.6-3.1-5.4-4.1-8.4-.9-3-1.4-6.2-1.4-9.6 0-4.5.9-8.7 2.5-12.6 2.4-5.8 6.5-10.7 11.7-14.2 2.6-1.7 5.4-3.1 8.4-4.1 3-.9 6.2-1.4 9.6-1.4 4.5 0 8.7.9 12.6 2.5 5.8 2.4 10.7 6.5 14.2 11.7 1.7 2.6 3.1 5.4 4.1 8.4.9 3 1.4 6.2 1.4 9.6 0 4.6-.9 8.8-2.5 12.6zM1946.9 566.3c-4.7-11.2-12.6-20.7-22.5-27.4-5-3.4-10.5-6-16.3-7.8-5.9-1.8-12.1-2.8-18.5-2.8-8.6 0-16.8 1.7-24.2 4.9-11.2 4.7-20.7 12.6-27.4 22.5-3.4 5-6 10.5-7.8 16.3-1.8 5.9-2.8 12.1-2.8 18.5 0 8.6 1.7 16.8 4.9 24.2 4.7 11.2 12.6 20.7 22.5 27.4 5 3.4 10.5 6 16.3 7.8 5.9 1.8 12.1 2.8 18.5 2.8 8.6 0 16.8-1.7 24.2-4.9 11.2-4.7 20.7-12.6 27.4-22.5 3.4-5 6-10.5 7.8-16.3 1.8-5.9 2.8-12.1 2.8-18.5 0-8.5-1.8-16.7-4.9-24.2zm-27.6 36.8c-2.4 5.8-6.5 10.7-11.7 14.2-2.6 1.7-5.4 3.1-8.4 4.1-3 .9-6.2 1.4-9.6 1.4-4.5 0-8.7-.9-12.6-2.5-5.8-2.4-10.7-6.5-14.2-11.7-1.7-2.6-3.1-5.4-4.1-8.4-.9-3-1.4-6.2-1.4-9.6 0-4.5.9-8.7 2.5-12.6 2.4-5.8 6.5-10.7 11.7-14.2 2.6-1.7 5.4-3.1 8.4-4.1 3-.9 6.2-1.4 9.6-1.4 4.5 0 8.7.9 12.6 2.5 5.8 2.4 10.7 6.5 14.2 11.7 1.7 2.6 3.1 5.4 4.1 8.4.9 3 1.4 6.2 1.4 9.6 0 4.6-.9 8.8-2.5 12.6zM292.8 206.9c-5-3.4-10.5-6-16.3-7.8-5.9-1.8-12.1-2.8-18.5-2.8-8.6 0-16.8 1.7-24.2 4.9-11.2 4.7-20.7 12.6-27.4 22.5-3.4 5-6 10.5-7.8 16.3-1.8 5.9-2.8 12.1-2.8 18.5 0 8.6 1.7 16.8 4.9 24.2 4.7 11.2 12.6 20.7 22.5 27.4 5 3.4 10.5 6 16.3 7.8 5.9 1.8 12.1 2.8 18.5 2.8 8.6 0 16.8-1.7 24.2-4.9 11.2-4.7 20.7-12.6 27.4-22.5 3.4-5 6-10.5 7.8-16.3 1.8-5.9 2.8-12.1 2.8-18.5 0-8.6-1.7-16.8-4.9-24.2-4.7-11.2-12.6-20.7-22.5-27.4zm-5.1 64.2c-2.4 5.8-6.5 10.7-11.7 14.2-2.6 1.7-5.4 3.1-8.4 4.1-3 .9-6.2 1.4-9.6 1.4-4.5 0-8.7-.9-12.6-2.5-5.8-2.4-10.7-6.5-14.2-11.7-1.7-2.6-3.1-5.4-4.1-8.4-.9-3-1.4-6.2-1.4-9.6 0-4.5.9-8.7 2.5-12.6 2.4-5.8 6.5-10.7 11.7-14.2 2.6-1.7 5.4-3.1 8.4-4.1 3-.9 6.2-1.4 9.6-1.4 4.5 0 8.7.9 12.6 2.5 5.8 2.4 10.7 6.5 14.2 11.7 1.7 2.6 3.1 5.4 4.1 8.4.9 3 1.4 6.2 1.4 9.6 0 4.6-.9 8.8-2.5 12.6zM464.8 1091.9c-2-1.4-4.3-2.5-6.7-3.2-2.4-.7-5-1.1-7.6-1.1-3.5 0-6.9.7-9.9 2-4.6 1.9-8.5 5.2-11.2 9.2-1.4 2-2.5 4.3-3.2 6.7-.7 2.4-1.1 5-1.1 7.6 0 3.5.7 6.9 2 9.9 1.9 4.6 5.2 8.5 9.2 11.2 2 1.4 4.3 2.5 6.7 3.2 2.4.7 5 1.1 7.6 1.1 3.5 0 6.9-.7 9.9-2 4.6-1.9 8.5-5.2 11.2-9.2 1.4-2 2.5-4.3 3.2-6.7.7-2.4 1.1-5 1.1-7.6 0-3.5-.7-6.9-2-9.9-2-4.6-5.2-8.5-9.2-11.2zm-14.3 21.1l4.3-1.3-4.3 1.3zm0 0l-1.3-4.3 1.3 4.3zm0 0l-3.7 2.5 3.7-2.5zm0 0l2.5 3.7-2.5-3.7 4.1 1.8-4.1-1.8zM1191.1 1775.3c-2-1.4-4.3-2.5-6.7-3.2-2.4-.7-5-1.1-7.6-1.1-3.5 0-6.9.7-9.9 2-4.6 1.9-8.5 5.2-11.2 9.2-1.4 2-2.5 4.3-3.2 6.7-.7 2.4-1.1 5-1.1 7.6 0 3.5.7 6.9 2 9.9 1.9 4.6 5.2 8.5 9.2 11.2 2 1.4 4.3 2.5 6.7 3.2 2.4.7 5 1.1 7.6 1.1 3.5 0 6.9-.7 9.9-2 4.6-1.9 8.5-5.2 11.2-9.2 1.4-2 2.5-4.3 3.2-6.7.7-2.4 1.1-5 1.1-7.6 0-3.5-.7-6.9-2-9.9-1.9-4.6-5.1-8.4-9.2-11.2zm-14.2 21.1l1.8-4.1-1.8 4.1zm0 0l-2.5-3.7 2.5 3.7zm0 0l1.3 4.3-1.3-4.3zM1287.3 200.8c-2-1.4-4.3-2.5-6.7-3.2-2.4-.7-5-1.1-7.6-1.1-3.5 0-6.9.7-9.9 2-4.6 1.9-8.5 5.2-11.2 9.2-1.4 2-2.5 4.3-3.2 6.7-.7 2.4-1.1 5-1.1 7.6 0 3.5.7 6.9 2 9.9 1.9 4.6 5.2 8.5 9.2 11.2 2 1.4 4.3 2.5 6.7 3.2 2.4.7 5 1.1 7.6 1.1 3.5 0 6.9-.7 9.9-2 4.6-1.9 8.5-5.2 11.2-9.2 1.4-2 2.5-4.3 3.2-6.7.7-2.4 1.1-5 1.1-7.6 0-3.5-.7-6.9-2-9.9-2-4.6-5.2-8.4-9.2-11.2zm-14.3 21.1l1.8-4.1-1.8 4.1zm0 .1l-4.3 1.3 4.3-1.3zm0 0l-1.8 4.1 1.8-4.1zm0 0l1.3 4.3-1.3-4.3zm0 0l4.1 1.8-4.1-1.8zM1590.1 770.2c-2-1.4-4.3-2.5-6.7-3.2-2.4-.7-5-1.1-7.6-1.1-3.5 0-6.9.7-9.9 2-4.6 1.9-8.5 5.2-11.2 9.2-1.4 2-2.5 4.3-3.2 6.7-.7 2.4-1.1 5-1.1 7.6 0 3.5.7 6.9 2 9.9 1.9 4.6 5.2 8.5 9.2 11.2 2 1.4 4.3 2.5 6.7 3.2 2.4.7 5 1.1 7.6 1.1 3.5 0 6.9-.7 9.9-2 4.6-1.9 8.5-5.2 11.2-9.2 1.4-2 2.5-4.3 3.2-6.7.7-2.4 1.1-5 1.1-7.6 0-3.5-.7-6.9-2-9.9-1.9-4.6-5.1-8.5-9.2-11.2zm-14.2 21.1l4.3-1.3-4.3 1.3zm0 0l-2.5-3.7 2.5 3.7zm0 0l-1.8 4.1 1.8-4.1zm0 0l2.5 3.7-2.5-3.7 4.1 1.8-4.1-1.8zM1111.2 994.5l-86.4-5.9c-5.3-.4-10.5 2.2-13.5 6.6-3 4.4-3.4 10.2-1 15l38.1 77.8c2.4 4.8 7.1 8 12.4 8.4s10.5-2.2 13.5-6.6l48.3-71.9c3-4.4 3.4-10.2 1-15s-7-8-12.4-8.4zm-47.2 56.9l-15.2-31.1 34.6 2.4-19.4 28.7zM244.5 827.9c5.1 1.7 10.7.6 14.7-3 4-3.5 5.8-9 4.8-14.2l-17.1-84.9c-1.1-5.3-4.8-9.5-9.9-11.3s-10.7-.6-14.7 3l-65 57.2c-4 3.5-5.8 9-4.8 14.2s4.8 9.5 9.9 11.3l82.1 27.7zm-21.9-70.7l6.8 34-32.8-11.1 26-22.9zM256.2 1491.8l-77.8-38.1c-4.8-2.4-10.5-2-15 1s-7 8.1-6.6 13.5l5.9 86.4c.4 5.3 3.5 10.1 8.4 12.5 4.8 2.4 10.5 2 15-1l71.9-48.3c4.4-3 7-8.1 6.6-13.5-.4-5.4-3.6-10.2-8.4-12.5zm-65.3 34.8l-2.3-34.6 31.1 15.3-28.8 19.3zM939.8 189.8l-66.4-55.6c-4.1-3.4-9.7-4.4-14.8-2.6-5 1.8-8.7 6.2-9.6 11.5l-15 85.3c-.9 5.3 1 10.6 5.1 14.1 4.1 3.4 9.7 4.4 14.8 2.6l81.3-29.7c5-1.8 8.7-6.2 9.6-11.5s-.9-10.7-5-14.1zM868.1 208l6-34.1 26.6 22.2-32.6 11.9zM1752 1163.4l-38.5 77.6c-2.4 4.8-2 10.5.9 15 3 4.5 8.1 7 13.4 6.7l86.4-5.4c5.3-.3 10.1-3.5 12.5-8.3 2.4-4.8 2-10.5-.9-15l-47.9-72.2c-3-4.5-8.1-7-13.4-6.7-5.4.4-10.2 3.5-12.5 8.3zm-.2 67.7l15.4-31 19.2 28.9-34.6 2.1z"/>
    </g>
</svg>
